<svg width="13" height="13" viewBox="0 0 13 13" fill="none" xmlns="http://www.w3.org/2000/svg">
<path d="M10.1621 7.36312H0.834673C0.598183 7.36312 0.39981 7.28082 0.239553 7.11621C0.0792967 6.95161 -0.000553558 6.74814 2.88813e-06 6.5058C2.88813e-06 6.2629 0.0801313 6.05914 0.240388 5.89453C0.400645 5.72993 0.598739 5.64791 0.834673 5.64848H10.1621L6.07223 1.44762C5.90529 1.27615 5.82516 1.07611 5.83184 0.847493C5.83852 0.618875 5.9256 0.418833 6.09309 0.247369C6.26003 0.0901939 6.45478 0.00789153 6.67736 0.000461425C6.89994 -0.00696868 7.0947 0.0753337 7.26163 0.247369L12.7705 5.90568C12.8539 5.99141 12.9132 6.08429 12.9482 6.18431C12.9833 6.28433 13.0005 6.39149 13 6.5058C13 6.62011 12.9825 6.72728 12.9474 6.8273C12.9123 6.92732 12.8534 7.02019 12.7705 7.10593L7.26163 12.7642C7.10861 12.9214 6.91747 13 6.68821 13C6.45896 13 6.26058 12.9214 6.09309 12.7642C5.92616 12.5928 5.84269 12.389 5.84269 12.153C5.84269 11.9169 5.92616 11.7134 6.09309 11.5426L10.1621 7.36312Z" fill="white"/>
</svg>
