<svg width="5" height="9" viewBox="0 0 5 9" fill="none" xmlns="http://www.w3.org/2000/svg">
<path d="M3.18702 4.5L0.209923 1.35202C0.0699741 1.20404 0 1.01569 0 0.786995C0 0.558296 0.0699741 0.369955 0.209923 0.221973C0.349872 0.0739907 0.527988 0 0.744273 0C0.960557 0 1.13867 0.0739907 1.27862 0.221973L4.79006 3.93498C4.8664 4.0157 4.9206 4.10314 4.95266 4.19731C4.98472 4.29148 5.0005 4.39238 4.99999 4.5C4.99999 4.60762 4.98396 4.70852 4.9519 4.80269C4.91984 4.89686 4.86589 4.9843 4.79006 5.06502L1.27862 8.77803C1.13867 8.92601 0.960557 9 0.744273 9C0.527988 9 0.349872 8.92601 0.209923 8.77803C0.0699741 8.63004 0 8.4417 0 8.213C0 7.9843 0.0699741 7.79596 0.209923 7.64798L3.18702 4.5Z" fill="white"/>
</svg>
