<svg width="19" height="21" viewBox="0 0 19 21" fill="none" xmlns="http://www.w3.org/2000/svg">
<path d="M9.12512 12.5069C8.83784 12.5069 8.59687 12.4071 8.4022 12.2076C8.20753 12.0082 8.11054 11.7616 8.11121 11.4679C8.11121 11.1735 8.20855 10.9266 8.40322 10.7271C8.59789 10.5276 8.83852 10.4282 9.12512 10.4289C9.41239 10.4289 9.65336 10.5286 9.84803 10.7281C10.0427 10.9276 10.1397 11.1742 10.139 11.4679C10.139 11.7623 10.0417 12.0092 9.84701 12.2087C9.65234 12.4082 9.41171 12.5076 9.12512 12.5069ZM5.06951 12.5069C4.78224 12.5069 4.54127 12.4071 4.3466 12.2076C4.15193 12.0082 4.05493 11.7616 4.05561 11.4679C4.05561 11.1735 4.15294 10.9266 4.34761 10.7271C4.54228 10.5276 4.78291 10.4282 5.06951 10.4289C5.35678 10.4289 5.59775 10.5286 5.79242 10.7281C5.98709 10.9276 6.08409 11.1742 6.08341 11.4679C6.08341 11.7623 5.98608 12.0092 5.79141 12.2087C5.59674 12.4082 5.35611 12.5076 5.06951 12.5069ZM13.1807 12.5069C12.8934 12.5069 12.6525 12.4071 12.4578 12.2076C12.2631 12.0082 12.1661 11.7616 12.1668 11.4679C12.1668 11.1735 12.2642 10.9266 12.4588 10.7271C12.6535 10.5276 12.8941 10.4282 13.1807 10.4289C13.468 10.4289 13.709 10.5286 13.9036 10.7281C14.0983 10.9276 14.1953 11.1742 14.1946 11.4679C14.1946 11.7623 14.0973 12.0092 13.9026 12.2087C13.7079 12.4082 13.4673 12.5076 13.1807 12.5069ZM9.12512 16.6628C8.83784 16.6628 8.59687 16.5631 8.4022 16.3636C8.20753 16.1641 8.11054 15.9175 8.11121 15.6238C8.11121 15.3294 8.20855 15.0825 8.40322 14.883C8.59789 14.6835 8.83852 14.5841 9.12512 14.5848C9.41239 14.5848 9.65336 14.6846 9.84803 14.8841C10.0427 15.0835 10.1397 15.3301 10.139 15.6238C10.139 15.9182 10.0417 16.1651 9.84701 16.3646C9.65234 16.5641 9.41171 16.6635 9.12512 16.6628ZM5.06951 16.6628C4.78224 16.6628 4.54127 16.5631 4.3466 16.3636C4.15193 16.1641 4.05493 15.9175 4.05561 15.6238C4.05561 15.3294 4.15294 15.0825 4.34761 14.883C4.54228 14.6835 4.78291 14.5841 5.06951 14.5848C5.35678 14.5848 5.59775 14.6846 5.79242 14.8841C5.98709 15.0835 6.08409 15.3301 6.08341 15.6238C6.08341 15.9182 5.98608 16.1651 5.79141 16.3646C5.59674 16.5641 5.35611 16.6635 5.06951 16.6628ZM13.1807 16.6628C12.8934 16.6628 12.6525 16.5631 12.4578 16.3636C12.2631 16.1641 12.1661 15.9175 12.1668 15.6238C12.1668 15.3294 12.2642 15.0825 12.4588 14.883C12.6535 14.6835 12.8941 14.5841 13.1807 14.5848C13.468 14.5848 13.709 14.6846 13.9036 14.8841C14.0983 15.0835 14.1953 15.3301 14.1946 15.6238C14.1946 15.9182 14.0973 16.1651 13.9026 16.3646C13.7079 16.5641 13.4673 16.6635 13.1807 16.6628ZM2.0278 20.8187C1.47016 20.8187 0.992611 20.6151 0.595162 20.2078C0.197712 19.8005 -0.000674213 19.3115 1.7214e-06 18.7408V4.195C1.7214e-06 3.62356 0.198726 3.13419 0.596176 2.72691C0.993625 2.31963 1.47083 2.11634 2.0278 2.11703H3.04171V0.0390625H5.06951V2.11703H13.1807V0.0390625H15.2085V2.11703H16.2224C16.7801 2.11703 17.2576 2.32067 17.6551 2.72795C18.0525 3.13523 18.2509 3.62425 18.2502 4.195V18.7408C18.2502 19.3122 18.0515 19.8016 17.6541 20.2089C17.2566 20.6161 16.7794 20.8194 16.2224 20.8187H2.0278ZM2.0278 18.7408H16.2224V8.35093H2.0278V18.7408Z" fill="white"/>
</svg>
